<svg width="110" height="161" viewBox="0 0 110 161" fill="none" xmlns="http://www.w3.org/2000/svg">
<path d="M56.9629 99.1314C78.0904 79.8755 85.2854 66.754 85.2854 47.9347C85.2854 29.1154 73.9939 17.803 54.7795 17.803C35.5651 17.803 23.5665 28.9074 23.5665 46.1255C23.5665 50.2013 24.2943 54.9633 25.4796 60.6195L3.8738 58.5816C2.6677 54.0484 2.18942 49.9726 2.18942 45.8968C2.18942 18.0318 22.3604 0.148254 55.9855 0.148254C89.6107 0.148254 107.848 17.1376 107.848 47.7059C107.848 69.9148 96.0779 89.1708 70.3756 111.588C57.3996 122.9 45.6298 131.966 29.3059 142.613H109.761V160.975H0.255524V144.215C13.9385 134.691 35.5651 118.387 56.9213 99.1314H56.9629Z" fill="#070C12"/>
</svg>
