<svg width="122" height="161" viewBox="0 0 122 161" fill="none" xmlns="http://www.w3.org/2000/svg">
<path d="M0.926147 0.125732H60.2537C105.15 0.125732 116.92 23.915 116.92 42.9214C116.92 58.1016 107.791 72.5956 88.3475 77.8151C108.768 81.2046 121.723 95.2619 121.723 116.764C121.723 138.266 108.518 160.932 65.2861 160.932H0.926147V0.125732ZM60.2537 69.8923C89.5536 69.8923 94.3572 55.6062 94.3572 44.5226C94.3572 31.8378 87.8692 18.238 60.2537 18.238H23.7589V69.8923H60.2537ZM64.1007 142.84C90.7597 142.84 99.1608 129.241 99.1608 114.747C99.1608 100.253 89.8031 88.0253 66.4921 88.0253H23.7589V142.84H64.1007Z" fill="#070C12"/>
</svg>
