<svg width="24" height="24" viewBox="0 0 24 24" fill="none" xmlns="http://www.w3.org/2000/svg">
<path d="M20 12.75C20.4142 12.75 20.75 12.4142 20.75 12C20.75 11.5858 20.4142 11.25 20 11.25L10.75 11.25L10.75 5.99998C10.75 5.69663 10.5673 5.42315 10.287 5.30707C10.0068 5.19098 9.68417 5.25515 9.46967 5.46965L3.46967 11.4696C3.32902 11.6103 3.25 11.8011 3.25 12C3.25 12.1989 3.32902 12.3897 3.46967 12.5303L9.46967 18.5303C9.68417 18.7448 10.0068 18.809 10.287 18.6929C10.5673 18.5768 10.75 18.3033 10.75 18L10.75 12.75L20 12.75Z" fill="white"/>
</svg>
