<svg width="209" height="22" viewBox="0 0 209 22" fill="none" xmlns="http://www.w3.org/2000/svg">
<path d="M4.18995 12.1049V0H0C0.102721 5.32799 0.208146 10.6587 4.18995 12.1049Z" fill="#C49D76"/>
<path d="M19.193 0H15.003C14.7435 3.77636 15.5707 8.6394 14.5895 11.6913C12.9351 8.48532 11.6403 4.9144 11.6916 0H7.50169C7.55305 3.15463 7.96664 5.94702 8.74246 8.33124C4.9661 10.1397 4.5498 15.3136 4.5498 20.8497H8.74246C9.00196 16.9679 8.17208 11.9535 9.15604 8.74483C10.759 12.159 12.1052 15.7812 12.0512 20.8497H16.2438C16.2438 17.7978 15.7248 15.2622 15.003 12.9348C18.109 10.2992 19.5552 6.05245 19.193 0.00270319V0Z" fill="#C49D76"/>
<path d="M29.5568 0.0163574H35.2389L42.8376 20.9228H37.861L36.2418 16.0355H28.5269L26.9374 20.9228H21.9608L29.5568 0.0163574ZM35.093 12.5321L33.1791 6.70135C32.9142 5.78767 32.6195 4.81723 32.4141 3.75487H32.3546C32.1789 4.81452 31.8843 5.78767 31.5896 6.70135L29.6758 12.5321H35.093Z" fill="white"/>
<path d="M44.8837 20.9228V0.0163574H59.1944V3.78731H49.8603V8.61521H58.6646V12.3267H49.8603V20.9256H44.8837V20.9228Z" fill="white"/>
<path d="M61.7301 20.9228V0.0163574H66.7067V20.9228H61.7301Z" fill="white"/>
<path d="M81.7611 12.8865C84.5076 10.3833 85.4429 8.67761 85.4429 6.23122C85.4429 3.78483 83.975 2.3143 81.4773 2.3143C78.9795 2.3143 77.4198 3.7578 77.4198 5.99604C77.4198 6.52587 77.5144 7.1449 77.6685 7.88017L74.8599 7.61526C74.7031 7.02596 74.6409 6.49614 74.6409 5.96631C74.6409 2.34403 77.263 0.0192871 81.6341 0.0192871C86.0051 0.0192871 88.3758 2.2278 88.3758 6.20149C88.3758 9.0885 86.8458 11.5917 83.5047 14.5057C81.8179 15.9762 80.2879 17.1548 78.1659 18.5389H88.6245V20.9258H74.3895V18.747C76.1682 17.5089 78.9795 15.3896 81.7557 12.8865H81.7611Z" fill="white"/>
<path d="M91.246 0.0163574H98.9582C104.794 0.0163574 106.324 3.10881 106.324 5.57953C106.324 7.55286 105.138 9.43698 102.61 10.1155C105.265 10.5561 106.949 12.3835 106.949 15.1786C106.949 17.9737 105.232 20.9201 99.6124 20.9201H91.246V0.0163574ZM98.9582 9.08557C102.767 9.08557 103.391 7.22847 103.391 5.78767C103.391 4.13873 102.548 2.37084 98.9582 2.37084H94.2141V9.08557H98.9582ZM99.4583 18.5684C102.924 18.5684 104.016 16.8005 104.016 14.9164C104.016 13.0322 102.799 11.4428 99.7692 11.4428H94.2141V18.5684H99.4583Z" fill="white"/>
<path d="M115.255 9.89404H124.957V10.5104H120.897V20.9555H119.318V10.5131H115.258V9.89675L115.255 9.89404Z" fill="white"/>
<path d="M131.28 17.6549H125.941L124.473 20.9555H123.668L128.534 9.89404H129.401L134.567 20.9555H132.783L131.283 17.6549H131.28ZM126.225 17.0386H131.012L128.612 11.716L126.228 17.0386H126.225Z" fill="white"/>
<path d="M140.698 15.7735H145.09V19.2011C144.236 20.4959 142.563 21.0825 140.665 21.0825C136.651 21.0825 134.821 18.5064 134.821 15.395C134.821 12.2836 136.732 9.78589 140.319 9.78589C142.706 9.78589 144.744 10.8293 145.09 13.2622H143.512C143.29 11.4781 142.074 10.3536 140.257 10.3536C137.556 10.3536 136.464 12.8973 136.464 15.441C136.464 17.9847 137.729 20.5122 140.541 20.5122C141.679 20.5122 142.863 20.131 143.512 19.2957V16.3898H140.7V15.7735H140.698Z" fill="white"/>
<path d="M147.618 9.89392H149.197V20.9554H147.618V9.89392Z" fill="white"/>
<path d="M151.946 9.89392H153.525V20.3364H159.307V20.9527H151.946V9.89392Z" fill="white"/>
<path d="M164.894 14.8412C167.2 15.8387 168.37 16.5496 168.37 18.2391C168.37 20.0232 167.075 21.0829 164.359 21.0829C161.466 21.0829 159.934 19.8502 159.855 17.6552H161.437C161.437 19.2339 162.415 20.5152 164.407 20.5152C165.702 20.5152 166.794 19.9773 166.794 18.6365C166.794 17.4363 165.94 17.0551 163.475 15.9171C161.485 15.0007 160.19 14.4168 160.19 12.63C160.19 10.8432 161.407 9.78894 164.045 9.78894C166.684 9.78894 168.119 10.8945 168.151 12.9003H166.556C166.556 11.3676 165.718 10.389 164.059 10.3566C162.604 10.3269 161.753 11.0378 161.753 12.1894C161.753 13.5004 162.859 13.9735 164.897 14.8439L164.894 14.8412Z" fill="white"/>
<path d="M170.549 9.89404H172.082V20.9555H170.536L170.552 9.89404H170.549ZM172.112 15.4086L177.61 9.89404H178.478C176.71 11.743 175.412 12.9784 173.677 14.776L179.237 20.9528H177.229L172.109 15.4059L172.112 15.4086Z" fill="white"/>
<path d="M187.798 17.6548H182.457L180.989 20.9554H180.183L185.049 9.89392H185.917L191.083 20.9554H189.299L187.798 17.6548ZM182.741 17.0385H187.528L185.125 11.7159L182.741 17.0385Z" fill="white"/>
<path d="M193.905 16.217L189.845 9.89697H191.71L195.092 15.0628L198.473 9.89697H199.233L195.489 15.6494V20.9584H193.908V16.2197L193.905 16.217Z" fill="white"/>
<path d="M205.712 17.6549H200.373L198.903 20.9555H198.097L202.963 9.89404H203.831L208.997 20.9555H207.21L205.71 17.6549H205.712ZM200.657 17.0386H205.445L203.042 11.716L200.657 17.0386Z" fill="white"/>
</svg>
