<svg width="374" height="46" viewBox="0 0 374 46" fill="none" xmlns="http://www.w3.org/2000/svg">
<path d="M0.20874 1.41992H38.8632V3.87554H22.6862V45.4918H16.3964V3.88631H0.219521V1.43069L0.20874 1.41992Z" fill="white"/>
<path d="M64.0553 32.3413H42.7841L36.9359 45.4918H33.7263L53.1128 1.41992H56.57L77.152 45.4918H70.0436L64.0661 32.3413H64.0553ZM43.915 29.8857H62.9891L53.4251 8.67907L43.9257 29.8857H43.915Z" fill="white"/>
<path d="M101.577 24.8444H119.079V38.5011C115.675 43.66 109.009 45.9971 101.448 45.9971C85.4541 45.9971 78.1627 35.7331 78.1627 23.3365C78.1627 10.94 85.7773 0.988281 100.069 0.988281C109.58 0.988281 117.7 5.1456 119.079 14.8388H112.789C111.906 7.73046 107.059 3.25003 99.8216 3.25003C89.0622 3.25003 84.711 13.3848 84.711 23.5196C84.711 33.6544 89.7515 43.7246 100.953 43.7246C105.487 43.7246 110.204 42.206 112.789 38.878V27.3H101.588V24.8444H101.577Z" fill="white"/>
<path d="M129.15 1.41992H135.44V45.4918H129.15V1.41992Z" fill="white"/>
<path d="M146.394 1.41992H152.684V43.0254H175.722V45.481H146.394V1.41992Z" fill="white"/>
<path d="M197.982 21.1306C207.169 25.1048 211.832 27.9374 211.832 34.6688C211.832 41.7771 206.673 45.9991 195.849 45.9991C184.325 45.9991 178.218 41.0878 177.906 32.3424H184.207C184.207 38.6322 188.105 43.7373 196.043 43.7373C201.202 43.7373 205.553 41.594 205.553 36.252C205.553 31.47 202.15 29.9514 192.327 25.4171C184.4 21.766 179.242 19.4396 179.242 12.3205C179.242 5.20138 184.088 1.00098 194.6 1.00098C205.112 1.00098 210.831 5.40601 210.96 13.3975H204.605C204.605 7.2908 201.267 3.39197 194.654 3.26273C188.859 3.14426 185.467 5.97683 185.467 10.565C185.467 15.7885 189.872 17.6733 197.993 21.1413L197.982 21.1306Z" fill="white"/>
<path d="M220.515 1.41992H226.621V45.4918H220.461L220.525 1.41992H220.515ZM226.74 23.3912L248.646 1.41992H252.104C245.06 8.78677 239.89 13.7088 232.976 20.871L255.13 45.481H247.128L226.729 23.3805L226.74 23.3912Z" fill="white"/>
<path d="M289.239 32.3413H267.957L262.109 45.4918H258.899L278.286 1.41992H281.743L302.325 45.4918H295.216L289.239 32.3413ZM269.088 29.8857H288.162L278.587 8.67907L269.088 29.8857Z" fill="white"/>
<path d="M313.569 26.1926L297.392 1.01172H304.824L318.297 21.5937L331.771 1.01172H334.797L319.881 23.9308V45.0836H313.58V26.2033L313.569 26.1926Z" fill="white"/>
<path d="M360.613 31.9214H339.342L333.483 45.0719H330.273L349.66 1H353.117L373.699 45.0719H366.58L360.602 31.9214H360.613ZM340.473 29.4658H359.547L349.972 8.25915L340.473 29.4658Z" fill="white"/>
</svg>
