<svg width="149" height="161" viewBox="0 0 149 161" fill="none" xmlns="http://www.w3.org/2000/svg">
<path d="M32.2319 93.1191V0H0C0.790202 40.9865 1.6012 81.9939 32.2319 93.1191Z" fill="#C49D76"/>
<path d="M147.646 0H115.414C113.417 29.0503 119.78 66.4602 112.232 89.9375C99.5056 65.2749 89.5449 37.8049 89.94 0H57.708C58.1031 24.2675 61.2847 45.7485 67.2528 64.0896C38.2025 78.0013 35.0001 117.803 35.0001 160.39H67.2528C69.2491 130.529 62.8651 91.9546 70.4344 67.2712C82.7657 93.535 93.1216 121.4 92.7057 160.39H124.958C124.958 136.913 120.966 117.407 115.414 99.5031C139.307 79.2282 150.432 46.5595 147.646 0.0207948V0Z" fill="#C49D76"/>
</svg>
