<svg width="427" height="84" viewBox="0 0 427 84" fill="none" xmlns="http://www.w3.org/2000/svg">
<path d="M16.6939 48.2292V0H0C0.409269 21.2282 0.82931 42.4671 16.6939 48.2292Z" fill="#C49D76"/>
<path d="M76.4704 0H59.7765C58.7425 15.046 62.0382 34.4217 58.1286 46.5813C51.5372 33.8078 46.3783 19.5803 46.5829 0H29.889C30.0937 12.5689 31.7415 23.6945 34.8326 33.1939C19.7865 40.3992 18.1279 61.0135 18.1279 83.0709H34.8326C35.8665 67.6048 32.5601 47.626 36.4804 34.8418C42.8672 48.4446 48.2308 62.8767 48.0154 83.0709H64.72C64.72 70.9113 62.6521 60.8088 59.7765 51.5356C72.1515 41.0346 77.9136 24.1146 76.4704 0.0107702V0Z" fill="#C49D76"/>
<path d="M117.762 0.0654297H140.402L170.677 83.3625H150.849L144.397 63.8899H113.659L107.326 83.3625H87.498L117.762 0.0654297ZM139.82 49.9317L132.195 26.7003C131.139 23.0599 129.965 19.1934 129.147 14.9607H128.91C128.21 19.1826 127.036 23.0599 125.862 26.7003L118.236 49.9317H139.82Z" fill="white"/>
<path d="M178.829 83.3625V0.0654297H235.847V15.0899H198.657V34.3256H233.736V49.1131H198.657V83.3733H178.829V83.3625Z" fill="white"/>
<path d="M245.949 83.3625V0.0654297H265.777V83.3625H245.949Z" fill="white"/>
<path d="M325.758 51.3435C336.701 41.3703 340.427 34.5742 340.427 24.8272C340.427 15.0801 334.579 9.22109 324.627 9.22109C314.676 9.22109 308.461 14.9724 308.461 23.8902C308.461 26.0011 308.838 28.4675 309.452 31.397L298.262 30.3415C297.637 27.9936 297.389 25.8827 297.389 23.7717C297.389 9.33956 307.836 0.0771484 325.252 0.0771484C342.667 0.0771484 352.113 8.87644 352.113 24.7087C352.113 36.2113 346.017 46.1846 332.705 57.7949C325.984 63.6539 319.888 68.3497 311.434 73.8641H353.104V83.3742H296.388V74.6934C303.475 69.7606 314.676 61.3168 325.737 51.3435H325.758Z" fill="white"/>
<path d="M363.549 0.0654297H394.276C417.529 0.0654297 423.625 12.3866 423.625 22.2306C423.625 30.0929 418.897 37.5997 408.827 40.3031C419.403 42.0586 426.113 49.3393 426.113 60.4757C426.113 71.6122 419.274 83.3518 396.883 83.3518H363.549V0.0654297ZM394.276 36.1996C409.452 36.1996 411.94 28.8005 411.94 23.0599C411.94 16.4901 408.579 9.44632 394.276 9.44632H375.375V36.1996H394.276ZM396.269 73.9817C410.076 73.9817 414.428 66.9379 414.428 59.431C414.428 51.9242 409.581 45.5913 397.507 45.5913H375.375V73.9817H396.269Z" fill="white"/>
</svg>
